<svg width="22" height="24" viewBox="0 0 22 24" fill="none" xmlns="http://www.w3.org/2000/svg">
<path d="M7.57443 0.505093C8.91704 0.0480371 10.3394 -0.098995 11.7331 0.0646758C13.0781 0.222234 14.3962 0.675215 15.5906 1.39611C17.4344 2.4997 18.9775 4.23692 19.9702 6.3188C20.8481 8.14906 21.2916 10.2425 21.25 12.3261C21.2198 14.0538 20.8622 15.7747 20.1961 17.3289C19.6235 18.6763 18.8269 19.8997 17.8626 20.9181C16.3281 22.5416 14.3628 23.6458 12.2869 23.9976C12.2895 21.1874 12.288 18.3768 12.2875 15.5665C13.1122 15.5628 13.937 15.5659 14.7617 15.5652C14.9219 14.4028 15.074 13.2392 15.235 12.0772C14.2528 12.0673 13.2703 12.0758 12.288 12.0731C12.2883 11.2979 12.2878 10.5226 12.2883 9.7474C12.294 9.2625 12.4237 8.75247 12.7414 8.41155C13.0584 8.06145 13.5141 7.93649 13.9444 7.92563C14.4154 7.92325 14.8866 7.92563 15.3576 7.92461C15.3584 6.93477 15.3558 5.94528 15.359 4.95578C14.675 4.82573 13.983 4.74865 13.2897 4.7225C12.7363 4.69873 12.1757 4.74118 11.6405 4.9113C11.1633 5.05935 10.7085 5.30995 10.3233 5.66412C9.91928 6.03085 9.59984 6.51134 9.3823 7.0431C9.13458 7.64515 9.01326 8.30696 8.97799 8.96809C8.95917 9.2608 8.96813 9.55453 8.96604 9.84791C8.96604 10.5895 8.96634 11.3311 8.96604 12.0727C8.06689 12.0724 7.16803 12.0744 6.26917 12.0717C6.26409 13.2361 6.26798 14.4005 6.26708 15.5648C7.16713 15.5676 8.06748 15.5601 8.96754 15.5686C8.96455 18.3792 8.96634 21.1894 8.96664 24C6.70366 23.6119 4.57365 22.3392 2.98691 20.4685C2.19832 19.5439 1.5424 18.4739 1.04905 17.3146C0.469033 15.9472 0.120009 14.4541 0.0273736 12.9397C-0.0969364 10.9776 0.20308 8.98066 0.908301 7.183C1.60426 5.39518 2.69107 3.80737 4.04145 2.59648C5.08912 1.65452 6.29427 0.939398 7.57443 0.505093Z" fill="#1877F2"/>
</svg>
