<svg width="22" height="23" viewBox="0 0 22 23" fill="none" xmlns="http://www.w3.org/2000/svg">
<path d="M10.7418 0.850886C11.7922 0.791722 12.8531 0.853487 13.8811 1.08429C15.6827 1.47764 17.3687 2.36966 18.7106 3.62707C18.7162 3.6664 18.674 3.68851 18.6541 3.71582C17.6585 4.69528 16.6776 5.69068 15.6788 6.66657C15.5893 6.62138 15.5262 6.53979 15.4504 6.4764C14.9551 6.05444 14.3937 5.70531 13.7853 5.46897C13.2322 5.24759 12.6444 5.11919 12.0513 5.0662C11.3929 5.03239 10.7251 5.04247 10.0814 5.19851C8.86267 5.47255 7.73607 6.11913 6.87119 7.01408C6.18079 7.72178 5.65964 8.58649 5.33518 9.5172C4.155 8.59787 2.96599 7.68992 1.78613 6.77059C2.9258 4.49796 4.90389 2.65768 7.25707 1.67431C8.36112 1.20717 9.54556 0.932156 10.7418 0.850886Z" fill="#E33E2B"/>
<path d="M1.7656 6.75757C1.7705 6.76082 1.78031 6.76732 1.78521 6.77057C2.96507 7.6899 4.15407 8.59785 5.33426 9.51717C5.17024 10.0181 5.05947 10.5363 5.0085 11.0607C5.0085 11.3314 4.96047 11.6019 4.99772 11.8724C5.00915 12.4097 5.10358 12.9442 5.25486 13.4601C5.27806 13.5485 5.32903 13.6366 5.30518 13.7309C5.23787 13.8112 5.14442 13.8628 5.06372 13.9282C4.1312 14.6489 3.19869 15.3696 2.26584 16.09C2.13024 16.1979 1.98648 16.2957 1.85742 16.4118C1.82768 16.4124 1.79828 16.4134 1.76887 16.4144L1.75319 16.4147C1.23138 15.3442 0.858898 14.1931 0.719707 13.0092C0.662854 12.754 0.680825 12.4887 0.637042 12.2313C0.622992 11.8304 0.624625 11.429 0.635735 11.0281C0.67527 10.7287 0.672003 10.4251 0.727876 10.1277C0.797144 9.6316 0.903662 9.14105 1.03632 8.65799C1.17192 8.21783 1.31993 7.7806 1.50617 7.35897C1.58524 7.15547 1.70548 6.96855 1.7656 6.75757Z" fill="#E33E2B"/>
<path d="M11.4715 10.8C11.4748 10.3962 11.4647 9.99213 11.4771 9.58838C14.8745 9.59195 18.2723 9.59066 21.6697 9.58903C21.8197 10.34 21.8828 11.1075 21.8779 11.873C21.8873 13.3622 21.6322 14.8586 21.0829 16.2463C20.5516 17.5902 19.7273 18.8239 18.6565 19.8017C17.6655 19.0329 16.6709 18.2696 15.6799 17.5012C15.5636 17.4085 15.4447 17.3188 15.3238 17.232C15.2803 17.207 15.2656 17.1585 15.247 17.1163C16.0583 16.5578 16.7095 15.7685 17.079 14.8566C17.2084 14.5169 17.3296 14.1681 17.3731 13.8056C15.4074 13.806 13.4414 13.8024 11.4754 13.8076C11.4663 12.805 11.4741 11.8025 11.4715 10.8Z" fill="#E33E2B"/>
<path d="M5.30486 13.7308L5.33002 13.7C5.74792 14.9463 6.5468 16.061 7.59204 16.8633C8.47489 17.5434 9.5381 17.9936 10.6464 18.136C11.506 18.2488 12.3853 18.1883 13.2289 17.9923C13.9481 17.8259 14.6352 17.5268 15.2479 17.1165C15.2665 17.1588 15.2812 17.2072 15.3247 17.2323C15.4455 17.3191 15.5645 17.4088 15.6808 17.5014C16.6718 18.2699 17.6664 19.0332 18.6574 19.802C17.7082 20.6755 16.5725 21.3426 15.3544 21.771C14.1703 22.1865 12.914 22.3942 11.6593 22.4007C11.3979 22.4303 11.1362 22.3871 10.8745 22.39C8.6889 22.2808 6.54549 21.4801 4.82226 20.1385C3.61071 19.2032 2.60174 18.0089 1.88487 16.6598C1.84109 16.5805 1.79469 16.5015 1.76855 16.4144C1.79796 16.4134 1.82737 16.4124 1.8571 16.4118C1.98616 16.2957 2.12993 16.1979 2.26553 16.0899C3.19837 15.3696 4.13088 14.6489 5.0634 13.9282C5.1441 13.8628 5.23755 13.8111 5.30486 13.7308Z" fill="#E33E2B"/>
</svg>
